<svg xmlns="http://www.w3.org/2000/svg" xmlns:xlink="http://www.w3.org/1999/xlink" xmlns:svgjs="http://svgjs.com/svgjs" version="1.1" width="1879.0499877929688" height="998.8515472412109"><g transform="scale(5) translate(30, 30)"> <defs id="SvgjsDefs2920"></defs><g xmlns:name="main_text" id="SvgjsG2921" rel="mainfill" name="main_text" transform="translate(27.544994831085205,-127.73970031738281)" fill="#ffffff" style="fill: #ffffff"><path d="M56.94 215.65L55.89 228.95Q54.27 231.61 52.10 233.83Q49.92 236.05 47.10 237.66Q44.27 239.27 40.81 240.20Q37.34 241.13 33.15 241.13Q26.85 241.13 21.53 239.03Q16.21 236.94 12.38 233.06Q8.55 229.19 6.41 223.79Q4.27 218.39 4.27 211.69Q4.27 205.16 6.37 199.76Q8.47 194.35 12.26 190.48Q16.05 186.61 21.45 184.52Q26.85 182.42 33.55 182.42Q39.52 182.42 44.35 184.03Q49.19 185.65 52.90 188.06L54.60 200.24L52.66 200.24Q50.89 193.23 45.73 189.68Q40.56 186.13 33.63 186.13Q28.55 186.13 24.48 187.94Q20.40 189.76 17.54 193.10Q14.68 196.45 13.15 201.17Q11.61 205.89 11.61 211.61Q11.61 217.34 13.23 222.02Q14.84 226.69 17.70 230.04Q20.56 233.39 24.52 235.28Q28.47 237.18 33.23 237.42Q37.26 237.42 40.93 236.29Q44.60 235.16 47.50 232.62Q50.40 230.08 52.38 225.89Q54.35 221.69 55.08 215.65L56.94 215.65ZM80.08 223.47Q80.08 224.44 80.00 225.40L80.00 226.85L79.68 227.18Q79.44 228.63 78.87 230Q77.66 232.98 75.56 235.20Q73.47 237.42 70.60 238.67Q67.74 239.92 62.58 239.92L62.58 237.82Q66.37 237.10 68.06 235.77Q69.76 234.44 70.97 232.42Q72.18 230.40 72.90 228.06Q73.39 226.53 73.55 224.92L73.55 196.69Q73.47 195.24 72.42 194.19Q71.37 193.15 69.92 193.15L68.39 193.15L68.39 190.97L116.29 190.97L116.29 193.15L114.76 193.15Q113.31 193.15 112.26 194.15Q111.21 195.16 111.13 196.53L111.13 234.35Q111.21 235.81 112.26 236.85Q113.31 237.90 114.76 237.90L116.21 237.90L116.45 240L99.60 240L99.60 237.90L101.13 237.90Q102.58 237.90 103.63 236.85Q104.68 235.81 104.76 234.35L104.76 198.31Q104.68 196.77 103.63 195.69Q102.58 194.60 101.21 194.60L83.47 194.60Q82.10 194.60 81.09 195.65Q80.08 196.69 80.00 198.15L80.08 223.47ZM164.60 233.71Q165.65 235.97 167.14 236.94Q168.63 237.90 170.00 237.90L171.29 237.90L171.29 240L153.87 240L153.87 237.90L155.16 237.90Q156.05 237.90 156.81 237.26Q157.58 236.61 157.58 235.40Q157.58 234.84 157.34 234.11L153.23 224.11L134.27 224.11L130.16 233.87Q129.84 234.60 129.84 235.40Q129.84 236.61 130.56 237.26Q131.29 237.90 132.18 237.90L133.47 237.90L133.47 240L117.18 240L117.18 237.90L118.47 237.90Q119.84 237.90 121.37 236.94Q122.90 235.97 124.03 233.71L140.32 198.95Q141.13 197.26 141.77 195.73Q142.34 194.35 142.78 192.90Q143.23 191.45 143.31 190.48L145.08 190.48L164.60 233.71M151.69 220.40L143.87 201.37L135.81 220.40L151.69 220.40ZM191.13 191.61Q193.31 191.61 196.25 192.02Q199.19 192.42 201.81 193.71Q204.44 195.00 206.25 197.50Q208.06 200.00 208.06 204.11Q208.06 207.34 206.09 209.80Q204.11 212.26 201.37 213.63Q206.37 214.92 209.52 218.31Q212.66 221.69 212.66 226.21Q212.66 230.24 210.93 232.86Q209.19 235.48 206.53 237.06Q203.87 238.63 200.65 239.27Q197.42 239.92 194.44 239.92L174.35 239.92L174.35 237.82L175.97 237.82Q177.66 237.82 178.79 236.77Q179.92 235.73 180.00 234.27L180.00 197.26Q179.92 195.73 178.79 194.76Q177.66 193.79 175.97 193.79L174.35 193.79L174.35 191.61L191.13 191.61M194.44 236.29Q196.77 236.29 198.83 235.69Q200.89 235.08 202.38 233.83Q203.87 232.58 204.76 230.69Q205.65 228.79 205.65 226.21Q205.65 222.66 203.99 220.48Q202.34 218.31 199.72 217.14Q197.10 215.97 193.83 215.56Q190.56 215.16 186.37 215.16L186.37 236.29L194.44 236.29M192.02 212.82Q194.44 212.50 196.49 211.57Q198.55 210.65 199.88 208.87Q201.21 207.10 201.21 204.11Q201.21 199.52 198.55 197.42Q195.89 195.32 191.05 195.32L186.37 195.32L186.37 213.06Q189.60 213.06 192.02 212.82ZM218.63 240.08L218.63 237.90L220.40 237.90Q222.02 237.90 223.15 236.90Q224.27 235.89 224.35 234.44L224.35 197.34Q224.27 195.81 223.23 194.76Q222.18 193.71 220.56 193.71L218.79 193.71L218.79 191.61L236.45 191.61L236.45 193.71L234.68 193.71Q233.06 193.71 231.98 194.76Q230.89 195.81 230.81 197.34L230.81 236.29L237.74 236.29Q243.23 236.29 246.33 233.71Q249.44 231.13 249.44 226.69Q249.44 225.73 249.31 224.60Q249.19 223.47 248.95 222.66Q248.06 220.16 246.65 218.59Q245.24 217.02 243.63 216.17Q242.02 215.32 240.36 215.04Q238.71 214.76 237.26 214.76Q236.37 214.76 235.52 214.84Q234.68 214.92 234.03 215.08Q233.23 215.24 232.50 215.40L232.50 214.19Q234.84 213.06 237.10 212.34Q239.35 211.61 241.45 211.61Q244.52 211.61 247.22 212.62Q249.92 213.63 251.98 215.28Q254.03 216.94 255.24 219.68Q256.45 222.42 256.45 225.89Q256.45 229.11 255.12 231.69Q253.79 234.27 251.33 236.09Q248.87 237.90 245.44 238.91Q242.02 239.92 237.90 240L218.63 240.08Z" fill="#ffffff" style="fill: #ffffff"></path></g><g xmlns:name="slogan_text" id="SvgjsG2922" rel="mainfill" name="slogan_text" transform="translate(-1.2599999904632568,-104.36968994140625)" fill="#ffffff" style="fill: #ffffff"><path d="M7.56 238.95L10.85 234.07L11.34 232.99L11.34 240L13.74 240L13.55 238.54L13.55 228.66L12.07 228.66L7.74 235.40L3.01 228.66L1.26 228.66L1.49 230.41L1.49 240L3.63 240L3.45 238.54L3.45 232.97L4.01 234.07ZM31.07 231.19L28.85 231.51L26.95 236.65L26.66 237.79L26.47 236.65L24.71 231.22L22.36 231.53L23.19 233.11L25.55 239.95C24.96 241.63 24.23 242.14 23.26 242.14C22.70 242.14 22.01 241.85 22.01 241.85L22.29 243.89C22.77 244.08 23.18 244.13 23.52 244.13C24.89 244.13 26.13 243.33 26.88 241.49ZM43.13 234.92L42.79 234.92L41.79 232.95C41.07 231.54 40.09 231.17 39.05 231.17C38.77 231.17 38.37 231.26 38.12 231.37L37.90 233.06C38.14 232.95 38.44 232.87 38.77 232.87C39.12 232.87 39.56 233.06 39.94 233.79L40.87 235.59L37.61 240L40.21 240L42.70 236.42L43.13 236.42L43.13 240L45.42 240L45.23 238.54L45.23 236.42L45.66 236.42L48.16 240L50.75 240L47.49 235.59L48.43 233.79C48.80 233.06 49.24 232.87 49.60 232.87C49.92 232.87 50.23 232.95 50.46 233.06L50.24 231.37C49.99 231.26 49.60 231.17 49.31 231.17C48.27 231.17 47.29 231.54 46.58 232.95L45.57 234.92L45.23 234.92L45.23 231.43L42.94 231.43L43.13 232.89ZM65.56 232.31C65.56 232.31 64.54 231.17 62.45 231.17C59.72 231.17 58.24 233.38 58.24 235.86C58.24 238.05 59.50 240.22 62.03 240.22C64.25 240.22 65.53 238.90 65.53 238.90L65.22 237.13C65.22 237.13 63.91 238.49 62.44 238.49C61.04 238.49 60.40 237.13 60.40 235.70C60.40 234.18 61.04 232.78 62.50 232.78C63.13 232.78 63.96 233.06 64.59 233.84ZM76.21 231.19L73.86 231.44L74.10 233.16L74.10 240L76.39 240L76.21 238.54L76.21 236.42L76.73 236.42L79.31 240L81.95 240L78.53 235.59L79.62 233.79C80.04 233.09 80.43 232.87 80.79 232.87C81.11 232.87 81.42 232.95 81.66 233.06L81.44 231.37C81.18 231.26 80.79 231.17 80.50 231.17C79.47 231.17 78.55 231.59 77.77 232.95L76.63 234.92L76.21 234.92ZM97.80 235.52C97.80 232.51 96.12 231.17 93.90 231.17C91.01 231.17 89.40 233.29 89.40 235.82C89.40 237.96 90.74 240.22 93.32 240.22C96.16 240.22 97.80 238.05 97.80 235.52ZM91.64 235.69C91.64 233.99 92.37 232.68 93.59 232.68C94.82 232.68 95.55 233.99 95.55 235.69C95.55 237.39 94.82 238.71 93.59 238.71C92.37 238.71 91.64 237.39 91.64 235.69ZM110.27 229.23C109.47 229.23 109.08 227.76 109.08 227.76L107.55 228.27C107.55 228.27 108.11 230.71 110.27 230.71C112.42 230.71 112.98 228.27 112.98 228.27L111.46 227.76C111.46 227.76 111.07 229.23 110.27 229.23ZM108.66 231.19L106.31 231.44L106.55 233.16L106.55 240L108.43 240L111.52 235.42L111.88 234.65L111.88 240L114.17 240L113.99 238.54L113.99 231.43L112.10 231.43L109.01 236.01L108.66 236.77ZM143.24 229.86C142.16 228.90 140.88 228.45 139.35 228.45C136.18 228.45 133.72 230.98 133.72 234.57C133.72 238.32 136.42 240.22 139.22 240.22C140.66 240.22 142.31 239.63 143.38 238.64L142.97 236.89C141.99 237.95 140.70 238.49 139.54 238.49C137.71 238.49 136.01 237.05 136.01 234.40C136.01 232.12 137.45 230.13 139.37 230.13C140.37 230.13 141.39 230.53 142.34 231.49ZM152.33 233.96C152.33 233.96 153.31 232.68 154.65 232.68C155.37 232.68 155.81 233.19 155.81 234.38L155.81 234.70C152.79 234.80 151.02 236.21 151.02 238.00C151.02 239.13 152.02 240.22 153.50 240.22C154.43 240.22 155.40 239.80 156.06 239.13C156.22 239.71 156.64 240.19 156.64 240.19L158.78 239.95C158.78 239.95 157.91 238.93 157.91 237.91L157.91 233.51C157.91 231.75 156.42 231.17 155.01 231.17C152.72 231.17 151.46 232.46 151.46 232.46ZM154.20 238.66C153.52 238.66 153.19 238.20 153.19 237.72C153.19 236.45 154.98 236.26 155.81 236.20L155.81 237.93C155.43 238.30 154.72 238.66 154.20 238.66ZM168.36 234.26C168.25 236.98 167.83 238.47 167.03 238.47C166.78 238.47 166.52 238.40 166.29 238.29L166.49 240.02C166.83 240.15 167.22 240.22 167.59 240.22C169.77 240.22 170.39 237.32 170.48 234.19L170.51 232.99L172.77 232.99L172.77 240L175.06 240L174.88 238.54L174.88 231.43L168.22 231.43L168.41 232.89ZM191.98 235.52C191.98 232.51 190.29 231.17 188.07 231.17C185.18 231.17 183.57 233.29 183.57 235.82C183.57 237.96 184.91 240.22 187.49 240.22C190.33 240.22 191.98 238.05 191.98 235.52ZM185.81 235.69C185.81 233.99 186.54 232.68 187.76 232.68C188.99 232.68 189.72 233.99 189.72 235.69C189.72 237.39 188.99 238.71 187.76 238.71C186.54 238.71 185.81 237.39 185.81 235.69ZM202.83 231.19L200.48 231.44L200.72 233.16L200.72 240L203.01 240L202.83 238.54L202.83 236.47L206.05 236.47L206.05 240L208.34 240L208.16 238.54L208.16 231.19L205.81 231.44L206.05 233.16L206.05 234.97L202.83 234.97ZM221.13 228.84L219.21 228.84L215.63 244.14L217.50 244.14ZM232.03 234.58L232.66 234.58C234.37 234.58 235.02 235.31 235.02 236.42C235.02 237.66 234.32 238.35 233.08 238.35L232.03 238.35ZM229.82 240L233.07 240C236.01 240 237.26 238.49 237.26 236.47C237.26 234.45 236.01 232.94 233.07 232.94L232.03 232.94L232.03 230.34L236.41 230.34L236.41 228.66L229.59 228.66L229.82 230.41ZM246.55 233.96C246.55 233.96 247.53 232.68 248.88 232.68C249.59 232.68 250.03 233.19 250.03 234.38L250.03 234.70C247.01 234.80 245.24 236.21 245.24 238.00C245.24 239.13 246.24 240.22 247.72 240.22C248.66 240.22 249.62 239.80 250.29 239.13C250.44 239.71 250.86 240.19 250.86 240.19L253.00 239.95C253.00 239.95 252.14 238.93 252.14 237.91L252.14 233.51C252.14 231.75 250.64 231.17 249.23 231.17C246.94 231.17 245.68 232.46 245.68 232.46ZM248.42 238.66C247.74 238.66 247.42 238.20 247.42 237.72C247.42 236.45 249.20 236.26 250.03 236.20L250.03 237.93C249.66 238.30 248.94 238.66 248.42 238.66ZM261.71 244.08L264.01 244.08L263.82 242.61L263.82 240.15C264.16 240.19 264.51 240.22 264.80 240.22C267.45 240.22 269.29 238.05 269.29 235.52C269.29 232.70 267.71 231.17 265.89 231.17C265.21 231.17 264.50 231.49 263.82 232.12L263.82 231.17L261.48 231.43L261.71 233.14ZM265.35 232.92C266.26 232.92 267.03 233.82 267.03 235.67C267.03 237.37 266.14 238.69 265.07 238.69C264.41 238.69 263.82 238.62 263.82 238.62L263.82 233.63C263.82 233.63 264.40 232.92 265.35 232.92ZM281.43 233.75C282.51 233.75 283.26 234.91 283.26 236.23C283.26 237.64 282.48 238.71 281.43 238.71C280.22 238.71 279.49 237.55 279.49 236.28C279.49 234.87 280.27 233.75 281.43 233.75ZM285.37 227.94L283.80 228.37C278.71 229.05 277.27 230.15 277.27 235.75L277.27 236.32C277.27 238.66 278.95 240.22 281.12 240.22C283.84 240.22 285.50 238.42 285.50 236.06C285.50 233.80 284.14 232.24 282.11 232.24C280.75 232.24 279.73 232.75 279.05 233.89C279.39 231.09 280.58 230.53 285.08 229.91ZM297.51 231.17C294.67 231.17 293.47 233.45 293.47 235.92C293.47 238.12 294.81 240.22 297.34 240.22C299.54 240.22 300.90 239.02 300.90 239.02L300.60 237.28C300.60 237.28 299.22 238.49 297.74 238.49C296.40 238.49 295.71 237.40 295.62 236.03L300.33 236.03L300.73 235.62C300.70 234.35 300.48 231.17 297.51 231.17ZM297.30 232.61C298.20 232.61 298.49 233.72 298.54 234.53L295.71 234.53C295.89 233.46 296.37 232.61 297.30 232.61ZM309.49 244.08L311.79 244.08L311.60 242.61L311.60 240.15C311.94 240.19 312.30 240.22 312.58 240.22C315.23 240.22 317.07 238.05 317.07 235.52C317.07 232.70 315.49 231.17 313.67 231.17C312.99 231.17 312.28 231.49 311.60 232.12L311.60 231.17L309.26 231.43L309.49 233.14ZM313.13 232.92C314.05 232.92 314.81 233.82 314.81 235.67C314.81 237.37 313.93 238.69 312.86 238.69C312.19 238.69 311.60 238.62 311.60 238.62L311.60 233.63C311.60 233.63 312.18 232.92 313.13 232.92Z" fill="#ffffff" style="fill: #ffffff"></path></g><g xmlns:name="symbol_mainfill" id="SvgjsG2923" rel="mainfill" name="symbol" transform="translate(102.90499877929688,-35.16040496826172) scale(1.1)" fill="#ffffff" style="fill: #ffffff"><g fill="#ffffff" style="fill: #ffffff"><path d="M61.408,60.575c4.326-0.337,8.596-1.745,12.531-3.508c4.177-1.87,8.146-4.552,11.341-7.834   c2.378-2.44,4.981-5.89,6.008-9.238c-0.024,0.113-0.049,0.241-0.068,0.4c2.669-1.152,3.262-5.55,3.47-8.431   c-0.173,3.645-4.749,4.442-3.83,8.3c0.033-0.04,0.054-0.068,0.083-0.104c-1.158,3.475-4.047,7.02-6.486,9.523   c-2.968,3.053-6.841,5.336-10.662,7.15c-4.142,1.968-8.739,3.189-13.308,3.541c-3.323,0.254-6.69-0.165-10.007-0.344   c-0.051-0.002-0.084,0.019-0.106,0.049c-0.021-0.03-0.053-0.051-0.102-0.049c-3.263,0.179-6.546,0.474-9.819,0.418   c-4.288-0.073-8.579-1.278-12.545-2.84c-4.286-1.687-8.274-4.225-11.718-7.271c-2.745-2.429-5.966-6.505-7.173-10.193   c0.041,0.051,0.074,0.094,0.123,0.153c0.916-3.856-3.656-4.655-3.833-8.294c0.21,2.879,0.803,7.278,3.47,8.43   c-0.018-0.162-0.043-0.292-0.067-0.407c0.987,3.181,3.355,6.041,5.41,8.571c2.843,3.511,7.107,6.101,11.088,8.104   c3.855,1.935,8.189,3.31,12.484,3.81c4.183,0.477,8.391,0.025,12.58-0.208c0.049-0.003,0.08-0.027,0.102-0.059   c0.022,0.032,0.055,0.056,0.106,0.059C54.12,60.503,57.761,60.856,61.408,60.575z" fill="#ffffff" style="fill: #ffffff"></path><path d="M70.734,57.89c3.004-1.378,4.272-5.841,4.669-9.686c-0.761,4.837-5.462,4.618-5.207,9.254   C71.36,56.67,70.847,56.546,70.734,57.89z" fill="#ffffff" style="fill: #ffffff"></path><path d="M64.621,59.52c1.102-1.168,1.279-1.032,0.207,0.069c3.208,0.054,5.511-5.68,6.162-8.677   C69.941,55.671,64.533,54.72,64.621,59.52z" fill="#ffffff" style="fill: #ffffff"></path><path d="M88.196,44.001c0.359-1.218,0.305-1.195,0.367-0.044c1.835-2.584,0.688-5.401,0.082-7.219   C88.776,39.066,86.472,42.193,88.196,44.001z" fill="#ffffff" style="fill: #ffffff"></path><path d="M88.645,36.738c-0.022-0.387-0.103-0.753-0.29-1.086C88.393,35.951,88.504,36.318,88.645,36.738z" fill="#ffffff" style="fill: #ffffff"></path><path d="M95,39.16c-1.242,3.144-5.116,2.186-5.718,5.742c1.054-0.705,0.658-0.592,0.265,0.28C92.051,44.827,94.081,41.953,95,39.16   z" fill="#ffffff" style="fill: #ffffff"></path><path d="M84.486,48.78c0.677-1.275,0.426-1.062,0.341,0.122c2.254-2.391,1.557-5.208,1.058-7.828   C85.697,43.549,82.994,46.575,84.486,48.78z" fill="#ffffff" style="fill: #ffffff"></path><path d="M85.65,39.663c0.059,0.461,0.144,0.933,0.235,1.411C85.922,40.578,85.868,40.103,85.65,39.663z" fill="#ffffff" style="fill: #ffffff"></path><path d="M93.183,44.415c-1.824,2.53-6.173,1.278-7.164,4.612c1.075-0.467,0.747-0.383,0.269,0.289   c2.147,0.167,3.637-1.476,5.098-3.088C91.792,45.792,93.851,44.299,93.183,44.415z" fill="#ffffff" style="fill: #ffffff"></path><path d="M82.533,44.035c-0.006,0.251,0.01,0.591,0.03,0.98C82.602,44.693,82.602,44.367,82.533,44.035z" fill="#ffffff" style="fill: #ffffff"></path><path d="M80.25,52.429c0.562-1.338,0.289-0.8,0.327,0.121c2.357-1.574,2.099-5.404,1.987-7.536   C82.253,47.583,78.983,49.855,80.25,52.429z" fill="#ffffff" style="fill: #ffffff"></path><path d="M91.152,49.589c-0.252,0.218-0.518,0.445-0.793,0.675C90.641,50.076,90.91,49.862,91.152,49.589z" fill="#ffffff" style="fill: #ffffff"></path><path d="M81.19,53.162c1.816,0.12,1.123-0.278,0.431,0.578c3.531,0.467,6.516-1.621,8.738-3.477   C87.685,52.048,83.412,50.42,81.19,53.162z" fill="#ffffff" style="fill: #ffffff"></path><path d="M75.869,55.402c0.622-0.899,0.403-0.605,0.331,0.121c2.312-1.392,2.12-5.116,1.984-7.254   C77.832,50.724,74.69,52.708,75.869,55.402z" fill="#ffffff" style="fill: #ffffff"></path><path d="M78.13,47.114c-0.004,0.275,0.024,0.676,0.054,1.155C78.237,47.896,78.23,47.513,78.13,47.114z" fill="#ffffff" style="fill: #ffffff"></path><path d="M87.004,54.34c-0.374,0.145-0.799,0.351-1.261,0.582C86.195,54.795,86.62,54.612,87.004,54.34z" fill="#ffffff" style="fill: #ffffff"></path><path d="M76.276,56.22c1.724,0.104,1.508-0.132,0.056,0.449c3.704,1.297,7.082-0.582,9.412-1.748   C82.778,55.756,78.588,53.987,76.276,56.22z" fill="#ffffff" style="fill: #ffffff"></path><path d="M58.366,59.812c1.452-0.784,0.92-0.706,0.337,0.352c3.497-0.06,6.732-4.518,7.913-7.108   C64.714,56.881,59.421,55.398,58.366,59.812z" fill="#ffffff" style="fill: #ffffff"></path><path d="M71.012,58.675c1.785,0.651,1.647,0.353,0.059,0.485c4.438,2.096,7.223,0.652,10.305-0.161   C78.034,59.133,73.546,56.82,71.012,58.675z" fill="#ffffff" style="fill: #ffffff"></path><path d="M83.094,58.641c-0.591,0.081-1.159,0.21-1.718,0.357C81.992,58.974,82.575,58.876,83.094,58.641z" fill="#ffffff" style="fill: #ffffff"></path><path d="M52.449,59.647c3.89,0.421,7.618-3.376,9.314-5.209c-2.645,2.826-7.445,1.079-9.78,4.579   C53.688,59.128,53.037,58.712,52.449,59.647z" fill="#ffffff" style="fill: #ffffff"></path><path d="M52.977,60.773c0.363,1.049,1.082,0.792-0.6,0.508c1.463,3.941,6.53,3.354,8.453,6.724   C59.604,65.816,56.865,61.265,52.977,60.773z" fill="#ffffff" style="fill: #ffffff"></path><path d="M76.881,61.97c-0.432,0.071-0.932,0.163-1.473,0.257C75.918,62.235,76.413,62.165,76.881,61.97z" fill="#ffffff" style="fill: #ffffff"></path><path d="M65.192,60.286c1.695,0.958,1.412,0.602-0.158,0.415c3.244,2.552,7.478,2.025,10.375,1.526   C72.155,62.175,68.193,58.673,65.192,60.286z" fill="#ffffff" style="fill: #ffffff"></path><path d="M70.539,64.704c-0.518-0.007-1.066-0.017-1.632-0.034C69.442,64.771,69.984,64.797,70.539,64.704z" fill="#ffffff" style="fill: #ffffff"></path><path d="M58.828,61.157c1.585,0.619,1.154,0.255-0.356,0.335c2.707,2.617,6.935,3.069,10.435,3.177   C65.468,64.02,62.379,60.024,58.828,61.157z" fill="#ffffff" style="fill: #ffffff"></path><path d="M29.261,57.926c-0.109-1.351-0.625-1.222,0.542-0.431c0.255-4.634-4.446-4.42-5.206-9.254   C24.988,52.09,26.258,56.555,29.261,57.926z" fill="#ffffff" style="fill: #ffffff"></path><path d="M35.169,59.625c-1.07-1.099-0.895-1.237,0.209-0.074c0.088-4.793-5.32-3.84-6.37-8.606   C29.658,53.944,31.96,59.673,35.169,59.625z" fill="#ffffff" style="fill: #ffffff"></path><path d="M11.805,44.035c1.725-1.81-0.585-4.937-0.45-7.267c-0.607,1.819-1.757,4.64,0.078,7.227   C11.498,42.839,11.443,42.818,11.805,44.035z" fill="#ffffff" style="fill: #ffffff"></path><path d="M11.355,36.768c0.14-0.419,0.251-0.785,0.29-1.082C11.459,36.018,11.377,36.383,11.355,36.768z" fill="#ffffff" style="fill: #ffffff"></path><path d="M5,39.193c0.913,2.801,2.947,5.673,5.451,6.022c-0.396-0.868-0.784-0.983,0.263-0.279C10.116,41.38,6.236,42.339,5,39.193z   " fill="#ffffff" style="fill: #ffffff"></path><path d="M14.118,41.101c0.091-0.476,0.177-0.946,0.236-1.404C14.137,40.135,14.082,40.608,14.118,41.101z" fill="#ffffff" style="fill: #ffffff"></path><path d="M15.166,48.935c-0.078-1.182-0.332-1.397,0.35-0.124c1.492-2.203-1.216-5.232-1.397-7.711   C13.616,43.722,12.914,46.545,15.166,48.935z" fill="#ffffff" style="fill: #ffffff"></path><path d="M13.708,49.352c-0.473-0.671-0.805-0.756,0.273-0.289c-0.993-3.333-5.34-2.081-7.169-4.614   c-0.665-0.116,1.398,1.376,1.798,1.823C10.066,47.874,11.563,49.521,13.708,49.352z" fill="#ffffff" style="fill: #ffffff"></path><path d="M17.434,45.048c0.02-0.388,0.036-0.726,0.03-0.977C17.395,44.402,17.395,44.727,17.434,45.048z" fill="#ffffff" style="fill: #ffffff"></path><path d="M19.421,52.587c0.038-0.921-0.235-1.462,0.328-0.121c1.264-2.575-2.007-4.847-2.316-7.417   C17.322,47.178,17.06,51.009,19.421,52.587z" fill="#ffffff" style="fill: #ffffff"></path><path d="M9.654,50.306c-0.28-0.233-0.549-0.463-0.804-0.684C9.094,49.9,9.368,50.116,9.654,50.306z" fill="#ffffff" style="fill: #ffffff"></path><path d="M18.375,53.775c-0.681-0.85-1.382-0.452,0.428-0.577c-2.217-2.74-6.478-1.119-9.149-2.891   C11.876,52.159,14.853,54.245,18.375,53.775z" fill="#ffffff" style="fill: #ffffff"></path><path d="M23.8,55.56c-0.073-0.726-0.293-1.024,0.328-0.12c1.178-2.697-1.967-4.685-2.313-7.139   C21.676,50.435,21.485,54.166,23.8,55.56z" fill="#ffffff" style="fill: #ffffff"></path><path d="M21.815,48.3c0.031-0.477,0.06-0.877,0.057-1.151C21.771,47.547,21.763,47.928,21.815,48.3z" fill="#ffffff" style="fill: #ffffff"></path><path d="M23.667,56.704c-1.452-0.578-1.67-0.343,0.055-0.444c-2.316-2.24-6.508-0.463-9.476-1.306   C16.576,56.124,19.952,58.009,23.667,56.704z" fill="#ffffff" style="fill: #ffffff"></path><path d="M14.247,54.954c-0.458-0.23-0.88-0.436-1.252-0.581C13.377,54.643,13.798,54.826,14.247,54.954z" fill="#ffffff" style="fill: #ffffff"></path><path d="M41.296,60.197c-0.586-1.055-1.119-1.133,0.335-0.349c-1.055-4.422-6.351-2.933-8.254-6.764   C34.562,55.679,37.801,60.14,41.296,60.197z" fill="#ffffff" style="fill: #ffffff"></path><path d="M18.625,59.035c-0.56-0.148-1.129-0.279-1.72-0.36C17.425,58.91,18.008,59.01,18.625,59.035z" fill="#ffffff" style="fill: #ffffff"></path><path d="M28.929,59.196c-1.587-0.13-1.727,0.166,0.058-0.485c-2.535-1.856-7.022,0.46-10.362,0.324   C21.702,59.85,24.493,61.291,28.929,59.196z" fill="#ffffff" style="fill: #ffffff"></path><path d="M47.55,59.684c-0.591-0.935-1.237-0.524,0.463-0.632c-2.332-3.498-7.135-1.746-9.779-4.583   C39.932,56.311,43.659,60.105,47.55,59.684z" fill="#ffffff" style="fill: #ffffff"></path><path d="M47.018,60.806c-3.884,0.493-6.625,5.043-7.849,7.231c1.923-3.368,6.987-2.775,8.453-6.722   C45.938,61.602,46.659,61.854,47.018,60.806z" fill="#ffffff" style="fill: #ffffff"></path><path d="M34.807,60.322c-3.003-1.615-6.959,1.886-10.21,1.938c2.893,0.499,7.125,1.024,10.363-1.522   C33.396,60.924,33.113,61.276,34.807,60.322z" fill="#ffffff" style="fill: #ffffff"></path><path d="M24.597,62.26c-0.543-0.094-1.043-0.186-1.476-0.258C23.591,62.198,24.086,62.268,24.597,62.26z" fill="#ffffff" style="fill: #ffffff"></path><path d="M31.094,64.704c-0.566,0.018-1.115,0.028-1.633,0.035C30.016,64.832,30.559,64.806,31.094,64.704z" fill="#ffffff" style="fill: #ffffff"></path><path d="M41.171,61.195c-3.554-1.135-6.64,2.858-10.077,3.509c3.499-0.11,7.724-0.56,10.434-3.176   C40.018,61.449,39.583,61.813,41.171,61.195z" fill="#ffffff" style="fill: #ffffff"></path></g></g> </g></svg>
